<svg width="40" height="40" viewBox="0 0 40 40" fill="none" xmlns="http://www.w3.org/2000/svg">
<path d="M19.9966 39.9999C31.0404 39.9999 39.9932 31.0456 39.9932 19.9999C39.9932 8.95428 31.0404 0 19.9966 0C8.95282 0 6.10352e-05 8.95428 6.10352e-05 19.9999C6.10352e-05 31.0456 8.95282 39.9999 19.9966 39.9999Z" fill="#D3D3D3"/>
<path fill-rule="evenodd" clip-rule="evenodd" d="M19.9967 20H6.10352e-05C6.10352e-05 8.96169 8.96024 0 19.9967 0V20Z" fill="#B71B1B"/>
<path fill-rule="evenodd" clip-rule="evenodd" d="M20.0034 20H40C40 8.96169 31.0398 0 20.0034 0V20Z" fill="#58799F"/>
<path d="M38.7021 12.9198C39.5364 15.1208 39.9931 17.5073 39.9931 19.9998C39.9931 22.4923 39.5364 24.8789 38.7021 27.0798H27.0822V38.7059C24.879 39.5421 22.4909 39.9998 19.9966 39.9998C17.5068 39.9998 15.1227 39.5438 12.9245 38.711V27.0798H1.29106C0.515429 25.0336 0.0660639 22.8269 0.00671387 20.5237V19.4759C0.0661439 17.1728 0.515589 14.9662 1.29106 12.9198H38.7021Z" fill="black"/>
<path d="M35.1954 21.5222C35.1954 21.7073 35.129 21.8521 34.9914 21.9542C34.8362 22.0694 34.6242 22.1219 34.357 22.1219C33.9266 22.1219 33.6122 22.0448 33.421 21.8692C33.2354 21.6986 33.1514 21.4303 33.1514 21.0707V20.9107H30.9618V21.0707C30.9618 21.6139 31.0997 22.0936 31.3731 22.5104C31.6457 22.9258 32.0501 23.2547 32.5895 23.4933C33.117 23.7268 33.7058 23.8444 34.357 23.8444C35.2866 23.8444 36.0178 23.637 36.5514 23.2329C37.1026 22.8157 37.3794 22.2425 37.3794 21.5116C37.3794 20.6076 36.9386 19.8952 36.0458 19.3808C35.6946 19.1778 35.245 18.9877 34.6978 18.8119C34.1866 18.6476 33.8282 18.4915 33.625 18.3374C33.4602 18.2128 33.369 18.0791 33.369 17.9256C33.369 17.75 33.4458 17.6063 33.5954 17.4924C33.7642 17.3638 33.9962 17.3047 34.2874 17.3047C34.5714 17.3047 34.7978 17.3745 34.9642 17.5239C35.125 17.6689 35.2002 17.875 35.2002 18.1381V18.2981H37.3794V18.1381C37.3794 17.6337 37.2482 17.1855 36.9866 16.793C36.7258 16.4021 36.361 16.0999 35.8906 15.8884C35.4306 15.6814 34.9106 15.5769 34.3298 15.5769C33.7378 15.5769 33.205 15.6724 32.7306 15.8619C32.2437 16.0562 31.8687 16.3295 31.6028 16.6785C31.3318 17.0342 31.1955 17.4444 31.1955 17.9097C31.1955 18.8278 31.7191 19.5575 32.7882 20.0827C33.101 20.2374 33.5042 20.3979 33.9978 20.5636C34.4594 20.7185 34.7834 20.8654 34.9666 21.0103C35.121 21.1323 35.1954 21.3039 35.1954 21.5222ZM4.89241 17.4428H2.61377V15.6831H9.39802V17.4428H7.07682V23.7381H4.89241V17.4428ZM14.768 21.0022V23.7381H12.5836V15.6831H15.7872C16.7472 15.6831 17.4962 15.9018 18.0373 16.3276C18.5925 16.7646 18.8739 17.3803 18.8739 18.1781C18.8739 18.75 18.7551 19.2232 18.5235 19.5994C18.3147 19.9385 18.0015 20.2216 17.5812 20.4455L19.1395 23.4595V23.7381H16.8833L15.5183 21.0022H14.768ZM24.5839 21.9838H28.0471V23.7381H22.3995V15.6831H28.0577V17.4428H24.5839V18.7538H27.5159V20.455H24.5839V21.9838ZM14.768 19.2478H15.7872C16.089 19.2478 16.3188 19.1763 16.4712 19.0175C16.6241 18.858 16.6948 18.6335 16.6948 18.3479C16.6948 18.0619 16.6228 17.8356 16.468 17.6727C16.3143 17.511 16.0856 17.4375 15.7872 17.4375H14.768V19.2478Z" fill="#E6B300"/>
<path fill-rule="evenodd" clip-rule="evenodd" d="M19.9967 0C31.0331 0 39.9932 8.96174 39.9932 20C39.9932 31.0383 31.0331 40 19.9967 40C8.96022 40 0 31.0383 0 20C0 8.96174 8.96022 0 19.9967 0ZM19.9967 1.76001C30.0618 1.76001 38.2333 9.93312 38.2333 20C38.2333 30.0669 30.0618 38.24 19.9967 38.24C9.93154 38.24 1.76003 30.0669 1.76003 20C1.76003 9.93312 9.93154 1.76001 19.9967 1.76001Z" fill="black"/>
</svg>
